<mxfile host="app.diagrams.net" modified="2023-06-30T17:31:46.765Z" agent="Mozilla/5.0 (Macintosh; Intel Mac OS X 10_15_7) AppleWebKit/605.1.15 (KHTML, like Gecko) Version/16.5.1 Safari/605.1.15" version="21.5.2" etag="s-s9j3zLO6Nin4GMqYjq" type="github">
  <diagram name="Page-1" id="vzI2ooxQFZNQ_325Na0i">
    <mxGraphModel>
      <root>
        <mxCell id="0" />
        <mxCell id="1" parent="0" />
      </root>
    </mxGraphModel>
  </diagram>
</mxfile>
